# xmcd
#
# Track frame offsets: 
#        150
#        31330
#        45970
#        61462
#        94482
#        115477
#        144025
#        176437
#
# Disc length: 2722 seconds
#
# Revision: 1
# Processed by: cddbd v1.5.2PL0 Copyright (c) Steve Scherf et al.
# Submitted via: ExactAudioCopy v0.99pb4
#
DISCID=640aa008
DTITLE=Lionel Hampton - Gerry Mulligan - Lionel Hampton - Gerry Mullig
DTITLE=an
DYEAR=1900
DGENRE=Jazz
TTITLE0=Flying Home
TTITLE1=Air Mail Special
TTITLE2=Midnight Sun
TTITLE3=Hamp's Boogie Boogie
TTITLE4=Cool Train
TTITLE5=Apple Core
TTITLE6=Song For Johhny Hodges
TTITLE7=Blight Of The Fummble
EXTD=
EXTT0=
EXTT1=
EXTT2=
EXTT3=
EXTT4=
EXTT5=
EXTT6=
EXTT7=
PLAYORDER=
